<?xml version="1.0" encoding="utf-8"?>
<svg version="1.1" id="Layer_1" xmlns="http://www.w3.org/2000/svg" xmlns:xlink="http://www.w3.org/1999/xlink" x="0px" y="0px"
	 viewBox="0 0 237.2 66.6" style="enable-background:new 0 0 237.2 66.6;" xml:space="preserve">
<style type="text/css">
	.st0{fill:#FFFFFF;}
</style>
<g>
	<path class="st0" d="M30.1,20.3c-0.2,0-0.3,0-0.5,0c-0.1,0-0.3,0-0.4,0c-3.3,0.3-6.2,1.6-8.5,3.9c-2,2-3.2,4.4-3.7,7.2
		c-0.2,1.4-0.3,2.9,0,4.3c0.1,1.3,0.6,2.6,1.2,3.7c0.7,1.4,1.5,2.6,2.6,3.6c0.6,0.7,1.3,1.2,2.2,1.7l0,0c0.7,0.4,1.4,0.9,2.1,1.1
		c0.2,0.1,0.5,0.2,0.7,0.3c1.7,0.6,3.4,0.8,5.2,0.7c3.3-0.2,6.1-1.5,8.4-3.8c0.4-0.4,0.9-0.8,1.1-1.3c0.6-0.8,1.1-1.6,1.6-2.5
		c0.7-1.2,1-2.6,1.2-4c0.1-0.8,0.2-1.5,0.1-2.3c-0.1-0.6-0.1-1.2-0.2-1.9c-0.1-1.2-0.5-2.3-1.1-3.3c-0.1-0.3-0.2-0.5-0.4-0.8
		c0-0.1,0-0.2-0.2-0.3c0-0.2-0.1-0.3-0.2-0.4c-0.7-1-1.5-2-2.4-2.8c-1.4-1.2-2.9-2.1-4.7-2.6c-0.8-0.3-1.6-0.4-2.4-0.5
		c0,0-0.1,0-0.1,0c-0.3-0.1-0.7-0.1-1-0.1C30.5,20.2,30.3,20.2,30.1,20.3z"/>
	<path class="st0" d="M29.9,3.8c-0.5,0-1-0.1-1.5,0c-1.9,0-3.7,0.3-5.5,0.8c-2,0.4-4,1.1-5.8,2c-1.2,0.6-2.4,1.2-3.4,1.9l0,0
		c-0.1,0-0.2,0.1-0.2,0.1c-0.3,0.1-0.5,0.3-0.7,0.5c-0.1,0-0.1,0.1-0.2,0.1C9,11.7,6.2,14.8,4,18.5c-2.2,3.7-3.4,7.7-3.9,12
		C0,31.8,0,33,0.1,34.3c0,0.1,0,0.2,0,0.2c-0.1,0.5,0,1,0.1,1.5c0.5,4.8,2,9.3,4.6,13.4c0.9,1.3,1.8,2.7,2.9,3.8
		c0.1,0.1,0.1,0.2,0.2,0.3c1.7,1.8,3.6,3.4,5.6,4.7c1.4,0.9,2.8,1.7,4.3,2.3c0.8,0.3,1.6,0.7,2.4,0.9c0.1,0,0.2,0.1,0.3,0.1
		c3.5,1.1,7,1.6,10.7,1.4c1.2-0.1,2.5-0.2,3.7-0.5c0.3,0,0.6-0.1,0.9-0.2c0.2,0,0.4,0,0.6-0.1c1.5-0.3,2.9-0.8,4.3-1.3
		c1.5-0.6,3-1.3,4.3-2.2c1.4-0.8,2.6-1.7,3.8-2.7c1.1-0.9,2.2-1.9,3.1-3c0.2-0.2,0.4-0.4,0.5-0.6c0.3-0.2,0.5-0.5,0.7-0.8
		c0.2-0.1,0.3-0.3,0.3-0.4c0.1-0.1,0.1-0.1,0.2-0.2c0.5-0.6,0.9-1.3,1.3-1.9c1.1-1.8,2-3.6,2.7-5.6c0.2-0.5,0.4-0.9,0.5-1.4
		c0.6-1.6,0.9-3.3,1.1-5c0-0.3-0.1-0.4-0.4-0.4c-2.1-0.2-4.1-0.5-6.2-0.6c-1.1-0.1-2.1-0.3-3.2-0.3c-0.8-0.2-0.9-0.2-1,0.5
		c0,0.2,0,0.4-0.1,0.7c0,0.1-0.1,0.1,0,0.2c-0.1,0.5-0.2,1-0.3,1.5c-0.4,1.3-0.9,2.5-1.4,3.6c-0.6,1-1.2,2.1-2,3
		c-2,2.5-4.5,4.4-7.5,5.7c-1.2,0.5-2.4,0.8-3.7,1.2l0,0c-0.1-0.1-0.2,0.1-0.3,0.1c-0.4-0.1-0.8,0.1-1.3,0.1l0,0c-0.2,0-0.3,0-0.5,0
		c-0.2,0-0.4,0-0.7,0c-3.3,0.2-6.4-0.5-9.3-1.9c-0.7-0.4-1.4-0.8-2.1-1.2c-0.2-0.1-0.4-0.3-0.6-0.3c-0.1-0.1-0.1-0.1-0.2-0.2
		c-1-0.7-1.9-1.6-2.8-2.5c0-0.2-0.2-0.3-0.3-0.5c-2.8-3.4-4.3-7.2-4.5-11.6c0-1.2,0.1-2.5,0.2-3.7c0-0.1,0.1-0.1,0.1-0.2
		c0.5-3,1.7-5.6,3.6-8.1c0.6-0.7,1.2-1.4,1.8-2.1c0.4-0.4,0.8-0.7,1.3-1.1c3.1-2.5,6.7-3.9,10.7-4.2c1.4-0.1,2.9,0,4.3,0.2
		c0.2,0,0.4,0.2,0.5-0.1c0.1-0.5,0.2-1.1,0.3-1.6c0.1-0.2,0-0.4,0-0.6c0.3-0.5,0.2-1.1,0.3-1.6l0,0c0.3-0.1,0.2-0.3,0.2-0.5
		c0.4-1.9,0.7-3.8,1.1-5.6c0-0.1,0.2-0.3-0.1-0.4c-0.1,0-0.1,0-0.2,0c-0.5-0.2-1-0.2-1.4-0.2c0,0-0.1-0.1-0.1-0.1
		c-0.9-0.1-1.8-0.2-2.7-0.2c-0.1,0-0.2,0-0.3,0C30.1,3.8,30,3.8,29.9,3.8L29.9,3.8z"/>
	<path class="st0" d="M43.1,7.2c-0.7,1.4-1.4,2.9-2.2,4.3c-0.4,0.6-0.7,1.2-1,1.9c-0.4,0.8-0.8,1.5-1.2,2.3c-0.5,1-0.5,1,0.5,1.5
		c1.7,1.1,3.2,2.3,4.5,3.8c0.1,0.2,0.3,0.4,0.4,0.5c0.9,1.1,1.7,2.3,2.3,3.6c0.7,1.4,1.2,2.9,1.5,4.5c0,0.2,0,0.4,0.3,0.4
		c1.1-0.2,2.2-0.3,3.3-0.7c0,0,0.1,0,0.1,0h0l0,0c0.4,0.1,0.7-0.1,1-0.2h0c1.7-0.3,3.5-0.6,5.2-1c0.1,0,0.1,0,0.2,0
		c0.6-0.1,0.6-0.1,0.4-0.6c-0.1-0.8-0.3-1.5-0.6-2.3c-0.3-1.1-0.7-2.3-1.2-3.3c-0.5-1.4-1.2-2.7-2-3.9l0,0c0-0.1,0-0.1-0.1-0.2
		c-0.6-1.1-1.3-2-2.1-3c-0.7-0.9-1.5-1.9-2.4-2.6c-0.1-0.2-0.3-0.4-0.4-0.5c-0.6-0.5-1.2-1-1.7-1.5c-1.4-1.2-3-2.1-4.6-3
		c-0.1,0-0.2-0.1-0.2-0.1C43.2,7.1,43.1,7.1,43.1,7.2L43.1,7.2z"/>
	<g>
		<path class="st0" d="M74.2,27.5h-5.5v-2.8h14v2.8h-5.5v14.4h-3V27.5z"/>
		<path class="st0" d="M85.9,24.7h7.7c2.2,0,3.9,0.6,5,1.7c0.9,0.9,1.4,2.2,1.4,3.7v0c0,2.8-1.7,4.5-4.1,5.2l4.6,6.5h-3.6l-4.2-6
			h-3.8v6h-3V24.7z M93.3,33.2c2.2,0,3.5-1.1,3.5-2.9v0c0-1.8-1.3-2.9-3.6-2.9h-4.4v5.8H93.3z"/>
		<path class="st0" d="M109.8,24.6h2.8l7.6,17.3H117l-1.7-4.2h-8.1l-1.8,4.2h-3.1L109.8,24.6z M114.1,35.1l-3-6.9l-3,6.9H114.1z"/>
		<path class="st0" d="M123.1,24.7h6.4c5.4,0,9.1,3.7,9.1,8.6v0c0,4.8-3.7,8.6-9.1,8.6h-6.4V24.7z M129.5,39.2c3.6,0,6-2.4,6-5.8v0
			c0-3.4-2.4-5.9-6-5.9h-3.4v11.7H129.5z"/>
		<path class="st0" d="M142.3,24.7h12.8v2.7h-9.7v4.5h8.6v2.7h-8.6v4.6h9.9v2.7h-12.9V24.7z"/>
		<path class="st0" d="M158.8,24.7h7.7c2.2,0,3.9,0.6,5,1.7c0.9,0.9,1.4,2.2,1.4,3.7v0c0,2.8-1.7,4.5-4.1,5.2l4.6,6.5h-3.6l-4.2-6
			h-3.8v6h-3V24.7z M166.3,33.2c2.2,0,3.5-1.1,3.5-2.9v0c0-1.8-1.3-2.9-3.6-2.9h-4.4v5.8H166.3z"/>
		<path class="st0" d="M183.2,33.3L183.2,33.3c0-4.9,3.7-9,9-9c5.3,0,9,4,9,8.9v0c0,4.8-3.7,8.9-9,8.9
			C186.9,42.2,183.2,38.2,183.2,33.3z M198,33.3L198,33.3c0-3.4-2.4-6.2-5.9-6.2c-3.4,0-5.8,2.7-5.8,6.1v0c0,3.3,2.4,6.1,5.9,6.1
			C195.7,39.4,198,36.7,198,33.3z"/>
		<path class="st0" d="M204.9,24.7h2.8l9.2,11.9V24.7h3v17.2h-2.5l-9.5-12.2v12.2h-3V24.7z"/>
		<path class="st0" d="M224.3,24.7h12.8v2.7h-9.7v4.5h8.6v2.7h-8.6v4.6h9.9v2.7h-12.9V24.7z"/>
	</g>
</g>
</svg>
