<?xml version="1.0" encoding="utf-8"?>
<!-- Generator: Adobe Illustrator 19.2.1, SVG Export Plug-In . SVG Version: 6.00 Build 0)  -->
<svg version="1.1" id="Layer_1" xmlns="http://www.w3.org/2000/svg" xmlns:xlink="http://www.w3.org/1999/xlink" x="0px" y="0px"
	 viewBox="0 0 59.2 66.6" style="enable-background:new 0 0 59.2 66.6;" xml:space="preserve">
<style type="text/css">
	.st0{fill:#00FFFF;}
</style>
<title>Chaincreator_Exchange_logo_white</title>
<metadata><?xpacket begin="﻿" id="W5M0MpCehiHzreSzNTczkc9d"?>
<x:xmpmeta xmlns:x="adobe:ns:meta/" x:xmptk="Adobe XMP Core 5.6-c111 79.158366, 2015/09/25-01:12:00        ">
   <rdf:RDF xmlns:rdf="http://www.w3.org/1999/02/22-rdf-syntax-ns#">
      <rdf:Description rdf:about=""
            xmlns:dc="http://purl.org/dc/elements/1.1/">
         <dc:title>
            <rdf:Alt>
               <rdf:li xml:lang="x-default">Chaincreator_Exchange_logo_white</rdf:li>
            </rdf:Alt>
         </dc:title>
      </rdf:Description>
   </rdf:RDF>
</x:xmpmeta>
                                                                                                    
                                                                                                    
                                                                                                    
                                                                                                    
                                                                                                    
                                                                                                    
                                                                                                    
                                                                                                    
                                                                                                    
                                                                                                    
                                                                                                    
                                                                                                    
                                                                                                    
                                                                                                    
                                                                                                    
                                                                                                    
                                                                                                    
                                                                                                    
                                                                                                    
                                                                                                    
                           
<?xpacket end="w"?></metadata>
<g>
	<path d="M30.2,20.3c-0.2,0-0.3,0-0.5,0c-0.1,0-0.3,0-0.4,0c-3.3,0.3-6.2,1.6-8.5,3.9c-2,2-3.2,4.4-3.7,7.2c-0.2,1.4-0.3,2.9,0,4.3
		c0.1,1.3,0.6,2.6,1.2,3.7c0.7,1.4,1.5,2.6,2.6,3.6c0.6,0.7,1.3,1.2,2.2,1.7l0,0c0.7,0.4,1.4,0.9,2.1,1.1c0.2,0.1,0.5,0.2,0.7,0.3
		c1.7,0.6,3.4,0.8,5.2,0.7c3.3-0.2,6.1-1.5,8.4-3.8c0.4-0.4,0.9-0.8,1.1-1.3c0.6-0.8,1.1-1.6,1.6-2.5c0.7-1.2,1-2.6,1.2-4
		c0.1-0.8,0.2-1.5,0.1-2.3c-0.1-0.6-0.1-1.2-0.2-1.9c-0.1-1.2-0.5-2.3-1.1-3.3c-0.1-0.3-0.2-0.5-0.4-0.8c0-0.1,0-0.2-0.2-0.3
		c0-0.2-0.1-0.3-0.2-0.4c-0.7-1-1.5-2-2.4-2.8c-1.4-1.2-2.9-2.1-4.7-2.6c-0.8-0.3-1.6-0.4-2.4-0.5c0,0-0.1,0-0.1,0
		c-0.3-0.1-0.7-0.1-1-0.1C30.5,20.2,30.3,20.2,30.2,20.3z"/>
	<path d="M29.9,3.8c-0.5,0-1-0.1-1.5,0c-1.9,0-3.7,0.3-5.5,0.8c-2,0.4-4,1.1-5.8,2c-1.2,0.6-2.4,1.2-3.4,1.9l0,0
		c-0.1,0-0.2,0.1-0.2,0.1c-0.3,0.1-0.5,0.3-0.7,0.5c-0.1,0-0.1,0.1-0.2,0.1c-3.5,2.5-6.3,5.6-8.5,9.3c-2.2,3.7-3.4,7.7-3.9,12
		C0.1,31.8,0,33,0.1,34.3c0,0.1,0,0.2,0,0.2c-0.1,0.5,0,1,0.1,1.5c0.5,4.8,2,9.3,4.6,13.4c0.9,1.3,1.8,2.7,2.9,3.8
		c0.1,0.1,0.1,0.2,0.2,0.3c1.7,1.8,3.6,3.4,5.6,4.7c1.4,0.9,2.8,1.7,4.3,2.3c0.8,0.3,1.6,0.7,2.4,0.9c0.1,0,0.2,0.1,0.3,0.1
		c3.5,1.1,7,1.6,10.7,1.4c1.2-0.1,2.5-0.2,3.7-0.5c0.3,0,0.6-0.1,0.9-0.2c0.2,0,0.4,0,0.6-0.1c1.5-0.3,2.9-0.8,4.3-1.3
		c1.5-0.6,3-1.3,4.3-2.2c1.4-0.8,2.6-1.7,3.8-2.7c1.1-0.9,2.2-1.9,3.1-3c0.2-0.2,0.4-0.4,0.5-0.6c0.3-0.2,0.5-0.5,0.7-0.8
		c0.2-0.1,0.3-0.3,0.3-0.4c0.1-0.1,0.1-0.1,0.2-0.2c0.5-0.6,0.9-1.3,1.3-1.9c1.1-1.8,2-3.6,2.7-5.6c0.2-0.5,0.4-0.9,0.5-1.4
		c0.6-1.6,0.9-3.3,1.1-5c0-0.3-0.1-0.4-0.4-0.4c-2.1-0.2-4.1-0.5-6.2-0.6c-1.1-0.1-2.1-0.3-3.2-0.3c-0.8-0.2-0.9-0.2-1,0.5
		c0,0.2,0,0.4-0.1,0.7c0,0.1-0.1,0.1,0,0.2c-0.1,0.5-0.2,1-0.3,1.5c-0.4,1.3-0.9,2.5-1.4,3.6c-0.6,1-1.2,2.1-2,3
		c-2,2.5-4.5,4.4-7.5,5.7c-1.2,0.5-2.4,0.8-3.7,1.2l0,0c-0.1-0.1-0.2,0.1-0.3,0.1c-0.4-0.1-0.8,0.1-1.3,0.1l0,0c-0.2,0-0.3,0-0.5,0
		c-0.2,0-0.4,0-0.7,0c-3.3,0.2-6.4-0.5-9.3-1.9c-0.7-0.4-1.4-0.8-2.1-1.2c-0.2-0.1-0.4-0.3-0.6-0.3c-0.1-0.1-0.1-0.1-0.2-0.2
		c-1-0.7-1.9-1.6-2.8-2.5c0-0.2-0.2-0.3-0.3-0.5c-2.8-3.4-4.3-7.2-4.5-11.6c0-1.2,0.1-2.5,0.2-3.7c0-0.1,0.1-0.1,0.1-0.2
		c0.5-3,1.7-5.6,3.6-8.1c0.6-0.7,1.2-1.4,1.8-2.1c0.4-0.4,0.8-0.7,1.3-1.1c3.1-2.5,6.7-3.9,10.7-4.2c1.4-0.1,2.9,0,4.3,0.2
		c0.2,0,0.4,0.2,0.5-0.1c0.1-0.5,0.2-1.1,0.3-1.6c0.1-0.2,0-0.4,0-0.6c0.3-0.5,0.2-1.1,0.3-1.6l0,0c0.3-0.1,0.2-0.3,0.2-0.5
		c0.4-1.9,0.7-3.8,1.1-5.6c0-0.1,0.2-0.3-0.1-0.4c-0.1,0-0.1,0-0.2,0c-0.5-0.2-1-0.2-1.4-0.2c0,0-0.1-0.1-0.1-0.1
		c-0.9-0.1-1.8-0.2-2.7-0.2c-0.1,0-0.2,0-0.3,0C30.2,3.8,30.1,3.8,29.9,3.8L29.9,3.8z"/>
	<path class="st0" d="M43.1,7.2c-0.7,1.4-1.4,2.9-2.2,4.3c-0.4,0.6-0.7,1.2-1,1.9c-0.4,0.8-0.8,1.5-1.2,2.3c-0.5,1-0.5,1,0.5,1.5
		c1.7,1.1,3.2,2.3,4.5,3.8c0.1,0.2,0.3,0.4,0.4,0.5c0.9,1.1,1.7,2.3,2.3,3.6c0.7,1.4,1.2,2.9,1.5,4.5c0,0.2,0,0.4,0.3,0.4
		c1.1-0.2,2.2-0.3,3.3-0.7c0,0,0.1,0,0.1,0h0l0,0c0.4,0.1,0.7-0.1,1-0.2h0c1.7-0.3,3.5-0.6,5.2-1c0.1,0,0.1,0,0.2,0
		c0.6-0.1,0.6-0.1,0.4-0.6c-0.1-0.8-0.3-1.5-0.6-2.3c-0.3-1.1-0.7-2.3-1.2-3.3c-0.5-1.4-1.2-2.7-2-3.9l0,0c0-0.1,0-0.1-0.1-0.2
		c-0.6-1.1-1.3-2-2.1-3c-0.7-0.9-1.5-1.9-2.4-2.6c-0.1-0.2-0.3-0.4-0.4-0.5c-0.6-0.5-1.2-1-1.7-1.5c-1.4-1.2-3-2.1-4.6-3
		c-0.1,0-0.2-0.1-0.2-0.1C43.2,7.1,43.2,7.1,43.1,7.2L43.1,7.2z"/>
</g>
</svg>
