<?xml version="1.0" encoding="utf-8"?>
<!-- Generator: Adobe Illustrator 19.2.1, SVG Export Plug-In . SVG Version: 6.00 Build 0)  -->
<svg version="1.1" id="Layer_1" xmlns="http://www.w3.org/2000/svg" xmlns:xlink="http://www.w3.org/1999/xlink" x="0px" y="0px"
	 viewBox="0 0 59.2 66.6" style="enable-background:new 0 0 59.2 66.6;" xml:space="preserve">
<style type="text/css">
	.st0{fill:#FFFFFF;}
	.st1{fill:url(#SVGID_1_);}
	.st2{fill:url(#SVGID_2_);}
	.st3{fill:url(#SVGID_3_);}
	.st4{fill:url(#SVGID_4_);}
	.st5{fill:url(#SVGID_5_);}
	.st6{fill:url(#SVGID_6_);}
	.st7{fill:url(#SVGID_7_);}
</style>
<title>Chaincreator_Exchange_logo_white</title>
<path class="st0" d="M2.8,52l23.9,13.8c1.8,1,3.9,1,5.7,0L56.3,52c1.8-1,2.8-2.9,2.8-4.9V19.5c0-2-1.1-3.9-2.8-4.9L32.4,0.8
	c-1.8-1-3.9-1-5.7,0L2.8,14.6C1,15.6,0,17.5,0,19.5v27.6C0,49.1,1.1,51,2.8,52z M6.4,23.6c0-3.6,2.9-6.5,6.5-6.5
	c1.5,0,3,0.5,4.2,1.5l6.1-3.5c-0.1-0.4-0.1-0.7-0.1-1.1c0-3.6,2.9-6.5,6.5-6.5s6.5,2.9,6.5,6.5c0,0.4,0,0.7-0.1,1.1l6.1,3.5
	c2.8-2.3,6.8-1.9,9.1,0.8s1.9,6.8-0.8,9.1c-2.8,2.3-6.8,1.9-9.1-0.8c-1-1.2-1.5-2.6-1.5-4.1c0-0.4,0-0.8,0.1-1.1L33.7,19
	c-2.4,2-5.9,2-8.3,0l-6.1,3.5c0.1,0.4,0.1,0.7,0.1,1.1c0,2.7-1.7,5.2-4.3,6.1v7.1c2.6,0.9,4.3,3.4,4.3,6.1c0,0.4,0,0.8-0.1,1.1
	l6.1,3.5c2.4-2,5.9-2,8.3,0l6.1-3.6c-0.1-0.4-0.1-0.7-0.1-1.1c0-3.6,2.9-6.5,6.5-6.5s6.5,2.9,6.5,6.5s-2.9,6.5-6.5,6.5
	c-1.5,0-3-0.5-4.2-1.5l-6,3.7c0.1,0.4,0.1,0.7,0.1,1.1c0,3.6-2.9,6.5-6.5,6.5s-6.5-2.9-6.5-6.5c0-0.4,0-0.7,0.1-1.1L17,47.9
	c-2.7,2.3-6.8,1.9-9.1-0.8s-2-6.8,0.8-9.1c0.6-0.5,1.2-0.9,2-1.1v-7.1C8.1,28.8,6.4,26.4,6.4,23.6z"/>
<path class="st0" d="M10.1,42.9c0,1.5,1.2,2.8,2.8,2.8h0.3c1.4-0.2,2.5-1.4,2.4-2.8c0-0.4-0.1-0.7-0.2-1.1c-0.6-1.4-2.3-2.1-3.7-1.5
	C10.7,40.8,10,41.8,10.1,42.9L10.1,42.9z"/>
<path class="st0" d="M29.6,55.3c0.1,0,0.2,0,0.3,0c1.4-0.2,2.5-1.4,2.5-2.8c0-0.4-0.1-0.7-0.2-1.1c-0.1-0.2-0.2-0.4-0.3-0.6
	c-0.5-0.7-1.4-1.1-2.2-1.1c-1.5,0-2.7,1.3-2.7,2.8C26.8,54.1,28,55.3,29.6,55.3z"/>
<path class="st0" d="M46.3,45.7h0.3c1.4-0.2,2.5-1.4,2.5-2.8c0-0.4-0.1-0.8-0.2-1.1c-0.1-0.2-0.2-0.4-0.3-0.6
	c-0.9-1.2-2.7-1.5-3.9-0.6s-1.5,2.7-0.6,3.9C44.5,45.3,45.4,45.7,46.3,45.7L46.3,45.7z"/>
<path class="st0" d="M46.3,26.4h0.3c1.4-0.2,2.5-1.4,2.5-2.8c0-0.4-0.1-0.8-0.2-1.1c-0.1-0.2-0.2-0.4-0.3-0.6
	c-0.9-1.2-2.7-1.5-3.9-0.6c-0.2,0.2-0.4,0.4-0.6,0.6c-0.4,0.5-0.6,1.1-0.6,1.7C43.5,25.2,44.7,26.4,46.3,26.4L46.3,26.4z"/>
<path class="st0" d="M29.6,16.8h0.3c1.4-0.2,2.4-1.3,2.5-2.7c0-0.4-0.1-0.8-0.2-1.1c-0.1-0.2-0.2-0.4-0.3-0.6
	c-0.5-0.7-1.4-1.1-2.2-1.1c-1.5,0.1-2.7,1.4-2.6,3C27,15.6,28.2,16.7,29.6,16.8L29.6,16.8z"/>
<path class="st0" d="M12.8,26.4h0.3c1.4-0.2,2.5-1.4,2.4-2.8c0-0.4-0.1-0.7-0.2-1.1c-0.6-1.4-2.2-2.1-3.6-1.5s-2.1,2.2-1.5,3.6
	C10.7,25.7,11.7,26.4,12.8,26.4z"/>
<g>
	<linearGradient id="SVGID_1_" gradientUnits="userSpaceOnUse" x1="-7.128316e-02" y1="33.3" x2="236.7713" y2="33.3">
		<stop  offset="0" style="stop-color:#295A74"/>
		<stop  offset="0.5033" style="stop-color:#45918B"/>
		<stop  offset="1" style="stop-color:#61C7A2"/>
	</linearGradient>
	<path class="st1" d="M2.9,52l23.9,13.8c1.8,1,3.9,1,5.7,0L56.3,52c1.8-1,2.8-2.9,2.8-4.9V19.5c0-2-1.1-3.9-2.8-4.9L32.4,0.8
		c-1.8-1-3.9-1-5.7,0L2.9,14.6c-1.8,1-2.8,2.9-2.8,4.9v27.6C0,49.1,1.1,51,2.9,52z M6.4,23.7c0-3.6,2.9-6.5,6.5-6.5
		c1.6,0,3,0.6,4.2,1.5l6.1-3.5c-0.1-0.4-0.1-0.7-0.1-1.1c0-3.6,2.9-6.5,6.5-6.5c3.6,0,6.5,2.9,6.5,6.5c0,0.4,0,0.8-0.1,1.1l6.1,3.5
		c1.1-0.9,2.6-1.5,4.2-1.5c3.6,0,6.5,2.9,6.5,6.5c0,3.6-2.9,6.5-6.5,6.5s-6.5-2.9-6.5-6.5c0-0.4,0-0.8,0.1-1.1L33.7,19
		c-1.1,0.9-2.6,1.5-4.2,1.5c-1.6,0-3-0.6-4.2-1.5l-6.1,3.5c0.1,0.4,0.1,0.7,0.1,1.1c0,2.8-1.8,5.2-4.3,6.1v7.1
		c2.5,0.9,4.3,3.3,4.3,6.1c0,0.4,0,0.8-0.1,1.1l6.1,3.5c1.1-0.9,2.6-1.5,4.2-1.5c1.6,0,3,0.6,4.2,1.5l6.1-3.5
		c-0.1-0.4-0.1-0.7-0.1-1.1c0-3.6,2.9-6.5,6.5-6.5s6.5,2.9,6.5,6.5c0,3.6-2.9,6.5-6.5,6.5c-1.6,0-3-0.6-4.2-1.5L36,51.5
		c0.1,0.4,0.1,0.7,0.1,1.1c0,3.6-2.9,6.5-6.5,6.5c-3.6,0-6.5-2.9-6.5-6.5c0-0.4,0-0.8,0.1-1.1L17,47.9c-1.1,0.9-2.6,1.5-4.2,1.5
		c-3.6,0-6.5-2.9-6.5-6.5c0-2.8,1.8-5.2,4.3-6.1v-7.1C8.2,28.8,6.4,26.5,6.4,23.7z"/>
	<linearGradient id="SVGID_2_" gradientUnits="userSpaceOnUse" x1="-7.128316e-02" y1="42.9454" x2="236.7713" y2="42.9454">
		<stop  offset="0" style="stop-color:#295A74"/>
		<stop  offset="0.5033" style="stop-color:#45918B"/>
		<stop  offset="1" style="stop-color:#61C7A2"/>
	</linearGradient>
	<path class="st2" d="M10.1,42.9c0,1.5,1.2,2.8,2.8,2.8c0.1,0,0.2,0,0.3,0c1.4-0.2,2.5-1.3,2.5-2.8c0-0.4-0.1-0.8-0.2-1.1
		c-0.1-0.2-0.2-0.4-0.3-0.6c-0.5-0.7-1.3-1.1-2.2-1.1c-0.9,0-1.7,0.4-2.2,1.1C10.3,41.7,10.1,42.3,10.1,42.9z"/>
	<linearGradient id="SVGID_3_" gradientUnits="userSpaceOnUse" x1="-7.128316e-02" y1="52.591" x2="236.7713" y2="52.591">
		<stop  offset="0" style="stop-color:#295A74"/>
		<stop  offset="0.5033" style="stop-color:#45918B"/>
		<stop  offset="1" style="stop-color:#61C7A2"/>
	</linearGradient>
	<path class="st3" d="M29.6,55.4c0.1,0,0.2,0,0.3,0c1.4-0.2,2.5-1.3,2.5-2.8c0-0.4-0.1-0.8-0.2-1.1c-0.1-0.2-0.2-0.4-0.3-0.6
		c-0.5-0.7-1.3-1.1-2.2-1.1c-0.9,0-1.7,0.4-2.2,1.1c-0.3,0.5-0.6,1-0.6,1.7C26.8,54.1,28,55.4,29.6,55.4z"/>
	<linearGradient id="SVGID_4_" gradientUnits="userSpaceOnUse" x1="-7.128316e-02" y1="42.9454" x2="236.7713" y2="42.9454">
		<stop  offset="0" style="stop-color:#295A74"/>
		<stop  offset="0.5033" style="stop-color:#45918B"/>
		<stop  offset="1" style="stop-color:#61C7A2"/>
	</linearGradient>
	<path class="st4" d="M46.3,45.7c0.1,0,0.2,0,0.3,0c1.4-0.2,2.5-1.3,2.5-2.8c0-0.4-0.1-0.8-0.2-1.1c-0.1-0.2-0.2-0.4-0.3-0.6
		c-0.5-0.7-1.3-1.1-2.2-1.1s-1.7,0.4-2.2,1.1c-0.3,0.5-0.6,1-0.6,1.7C43.5,44.5,44.8,45.7,46.3,45.7z"/>
	<linearGradient id="SVGID_5_" gradientUnits="userSpaceOnUse" x1="-7.128316e-02" y1="23.6546" x2="236.7713" y2="23.6546">
		<stop  offset="0" style="stop-color:#295A74"/>
		<stop  offset="0.5033" style="stop-color:#45918B"/>
		<stop  offset="1" style="stop-color:#61C7A2"/>
	</linearGradient>
	<path class="st5" d="M46.3,26.4c0.1,0,0.2,0,0.3,0c1.4-0.2,2.5-1.3,2.5-2.8c0-0.4-0.1-0.8-0.2-1.1c-0.1-0.2-0.2-0.4-0.3-0.6
		c-0.5-0.7-1.3-1.1-2.2-1.1s-1.7,0.4-2.2,1.1c-0.3,0.5-0.6,1-0.6,1.7C43.5,25.2,44.8,26.4,46.3,26.4z"/>
	<linearGradient id="SVGID_6_" gradientUnits="userSpaceOnUse" x1="-7.128316e-02" y1="14.009" x2="236.7713" y2="14.009">
		<stop  offset="0" style="stop-color:#295A74"/>
		<stop  offset="0.5033" style="stop-color:#45918B"/>
		<stop  offset="1" style="stop-color:#61C7A2"/>
	</linearGradient>
	<path class="st6" d="M29.6,16.8c0.1,0,0.2,0,0.3,0c1.4-0.2,2.5-1.3,2.5-2.8c0-0.4-0.1-0.8-0.2-1.1c-0.1-0.2-0.2-0.4-0.3-0.6
		c-0.5-0.7-1.3-1.1-2.2-1.1c-0.9,0-1.7,0.4-2.2,1.1c-0.3,0.5-0.6,1-0.6,1.7C26.8,15.5,28,16.8,29.6,16.8z"/>
	<linearGradient id="SVGID_7_" gradientUnits="userSpaceOnUse" x1="-7.128316e-02" y1="23.6546" x2="236.7713" y2="23.6546">
		<stop  offset="0" style="stop-color:#295A74"/>
		<stop  offset="0.5033" style="stop-color:#45918B"/>
		<stop  offset="1" style="stop-color:#61C7A2"/>
	</linearGradient>
	<path class="st7" d="M12.9,26.4c0.1,0,0.2,0,0.3,0c1.4-0.2,2.5-1.3,2.5-2.8c0-0.4-0.1-0.8-0.2-1.1c-0.1-0.2-0.2-0.4-0.3-0.6
		c-0.5-0.7-1.3-1.1-2.2-1.1c-0.9,0-1.7,0.4-2.2,1.1c-0.3,0.5-0.6,1-0.6,1.7C10.1,25.2,11.3,26.4,12.9,26.4z"/>
</g>
</svg>
