<?xml version="1.0" encoding="utf-8"?>
<!-- Generator: Adobe Illustrator 19.2.1, SVG Export Plug-In . SVG Version: 6.00 Build 0)  -->
<svg version="1.1" id="Layer_1" xmlns="http://www.w3.org/2000/svg" xmlns:xlink="http://www.w3.org/1999/xlink" x="0px" y="0px"
	 viewBox="0 0 59.2 66.6" style="enable-background:new 0 0 59.2 66.6;" xml:space="preserve">
<style type="text/css">
	.st0{fill:#FEC200;}
	.st1{fill:#FFFFFF;}
</style>
<g>
	<path class="st0" d="M0.1,48.7c0-2,0.6-3.7,1.9-5.1s3-2,5.2-2s4,0.7,5.2,2s1.9,3,1.9,5.1c0,2-0.6,3.7-1.9,5.1s-3,2-5.2,2
		s-4-0.7-5.2-2C0.7,52.4,0.1,50.7,0.1,48.7z"/>
	<path class="st1" d="M34.3,36.3l7.4-6.3c-0.7-0.2-1.2-0.5-1.5-0.9s-0.4-1-0.4-1.8c0-1.4,0.3-2.3,0.9-2.9s1.7-0.8,3.4-0.8h7.7
		c1.6,0,2.7,0.3,3.4,0.8c0.7,0.6,1,1.5,1,2.8c0,1-0.2,1.7-0.6,2.1s-1.2,0.8-2.4,1c-1.1,0.2-2.1,0.5-2.9,1c-0.9,0.5-1.8,1.2-3,2.3
		l-2.5,2.5L54,47h1c1.4,0,2.4,0.3,3,0.9c0.7,0.6,1,1.5,1,2.7c0,1.3-0.3,2.3-1,2.8c-0.7,0.6-1.8,0.9-3.4,0.9H46
		c-1.5,0-2.6-0.2-3.3-0.7s-1-1.3-1-2.3c0-0.8,0.2-1.4,0.6-1.9s1-0.9,2-1.2l-5.7-6.6l-4.3,3.8v6.9c0,0.8-0.2,1.4-0.5,1.7
		s-0.8,0.5-1.6,0.5h-6.3c-1.5,0-2.6-0.3-3.3-0.9s-1-1.5-1-2.8c0-1.2,0.3-2.1,0.9-2.7s1.6-0.9,2.8-0.9h0.6v-29h-0.6
		c-1.2,0-2.2-0.3-2.8-1c-0.7-0.6-1-1.6-1-2.7c0-1.3,0.3-2.2,1-2.8s1.8-0.9,3.4-0.9h6.3c0.8,0,1.3,0.2,1.6,0.5s0.5,0.9,0.5,1.7V36.3z
		"/>
</g>
</svg>
