<svg id="svg" xmlns="http://www.w3.org/2000/svg" xmlns:xlink="http://www.w3.org/1999/xlink" width="400" height="400" viewBox="0, 0, 400,400"><g id="svgg"><path id="path0" d="M136.455 87.398 C 134.877 87.669,134.246 88.298,133.990 89.853 C 133.575 92.379,133.716 381.932,134.133 383.330 C 134.975 386.153,136.626 387.197,144.333 389.779 C 185.286 403.502,234.974 403.500,275.795 389.774 C 322.997 373.902,363.721 339.452,385.908 296.625 C 388.306 291.997,389.435 292.357,372.508 292.354 C 364.858 292.353,357.051 292.253,355.159 292.133 C 346.365 291.574,342.285 293.669,336.124 301.911 C 312.200 333.912,265.403 358.308,221.783 361.519 C 205.397 362.725,176.948 359.870,175.214 356.846 C 174.973 356.425,174.876 326.921,174.777 222.803 C 174.670 110.912,174.594 89.190,174.303 88.627 C 173.585 87.233,174.018 87.264,155.159 87.222 C 145.561 87.200,137.144 87.279,136.455 87.398 " stroke="none" fill="#646464" fill-rule="evenodd"></path><path id="path1" d="M195.287 0.282 C 140.521 3.717,92.630 28.510,56.061 72.357 C 23.158 111.808,8.655 162.030,13.386 220.127 C 17.949 276.157,42.245 321.752,86.797 357.897 C 98.449 367.351,118.897 380.127,122.374 380.127 C 123.878 380.127,123.837 380.799,123.762 357.434 L 123.694 336.141 122.992 335.079 C 122.566 334.436,121.109 333.147,119.297 331.811 C 72.214 297.076,46.639 243.812,51.176 189.936 C 55.755 135.565,79.584 94.795,124.274 64.875 C 151.631 46.559,174.363 39.212,206.630 38.255 C 216.657 37.958,215.632 40.161,215.611 18.944 C 215.594 0.672,215.645 1.262,214.012 0.446 C 213.019 -0.050,202.105 -0.146,195.287 0.282 M227.340 1.022 C 227.033 1.145,226.574 1.563,226.321 1.950 C 225.676 2.933,225.462 309.433,226.105 310.971 C 226.809 312.658,226.245 312.611,246.115 312.611 C 265.870 312.611,265.290 312.658,266.071 311.012 C 266.467 310.176,266.497 301.136,266.503 180.853 C 266.509 52.006,266.523 49.901,267.389 49.267 C 268.195 48.678,272.176 50.333,282.548 55.565 C 307.107 67.955,324.445 82.027,338.981 101.369 C 342.188 105.635,342.687 106.185,343.931 106.815 L 345.314 107.516 365.332 107.512 C 389.517 107.508,388.009 107.827,385.643 103.205 C 362.943 58.857,318.768 22.777,269.427 8.283 C 254.687 3.953,230.445 -0.229,227.340 1.022 " stroke="none" fill="#0f7bb7" fill-rule="evenodd"></path></g></svg>